<svg xmlns="http://www.w3.org/2000/svg" viewBox="0 0 24 24" shape-rendering="crispEdges">
  <rect width="24" height="24" fill="#0A0F0D"/>
  <rect x="8" y="4" width="1" height="1" fill="#000000"/>
  <rect x="9" y="3" width="1" height="1" fill="#000000"/>
  <rect x="10" y="2" width="1" height="1" fill="#000000"/>
  <rect x="11" y="1" width="1" height="1" fill="#000000"/>
  <rect x="12" y="2" width="1" height="1" fill="#000000"/>
  <rect x="13" y="3" width="1" height="1" fill="#000000"/>
  <rect x="14" y="4" width="1" height="1" fill="#000000"/>
  <rect x="11" y="2" width="1" height="6" fill="#00C805"/>
  <rect x="9" y="4" width="1" height="15" fill="#000000"/>
  <rect x="10" y="3" width="6" height="1" fill="#000000"/>
  <rect x="16" y="4" width="1" height="1" fill="#000000"/>
  <rect x="17" y="5" width="1" height="11" fill="#000000"/>
  <rect x="16" y="16" width="1" height="1" fill="#000000"/>
  <rect x="15" y="17" width="1" height="1" fill="#000000"/>
  <rect x="14" y="18" width="1" height="1" fill="#000000"/>
  <rect x="13" y="19" width="1" height="1" fill="#000000"/>
  <rect x="11" y="20" width="2" height="1" fill="#000000"/>
  <rect x="11" y="21" width="1" height="3" fill="#000000"/>
  <rect x="8" y="9" width="1" height="4" fill="#000000"/>
  <rect x="7" y="10" width="1" height="2" fill="#000000"/>
  <rect x="10" y="4" width="6" height="15" fill="#c2996b"/>
  <rect x="9" y="5" width="1" height="14" fill="#c2996b"/>
  <rect x="8" y="10" width="1" height="2" fill="#c2996b"/>
  <rect x="10" y="21" width="2" height="3" fill="#c2996b"/>
  <rect x="10" y="7" width="1" height="1" fill="#d7be99"/>
  <rect x="11" y="10" width="1" height="1" fill="#00C805"/>
  <rect x="14" y="10" width="1" height="1" fill="#00C805"/>
  <rect x="13" y="13" width="1" height="2" fill="#000000"/>
  <rect x="12" y="16" width="4" height="1" fill="#7f1111"/>
  <rect x="8" y="12" width="1" height="1" fill="#00C805"/>
  <rect x="15" y="15" width="4" height="1" fill="#111916"/>
  <rect x="10" y="20" width="4" height="4" fill="#00A004"/>
</svg>